<?xml version="1.0" encoding="iso-8859-1"?>
<!-- Uploaded to: SVG Repo, www.svgrepo.com, Generator: SVG Repo Mixer Tools -->
<svg fill="#000000" height="800px" width="800px" version="1.1" id="Layer_1" xmlns="http://www.w3.org/2000/svg" xmlns:xlink="http://www.w3.org/1999/xlink" 
	 viewBox="0 0 511.998 511.998" xml:space="preserve">
<g>
	<g>
		<path d="M335.482,117.547h-29.17c-4.5,0-8.146,3.647-8.146,8.146c0,4.499,3.646,8.146,8.146,8.146h29.17
			c4.822,0,8.747,3.923,8.747,8.746v68.426c0,4.822-3.924,8.747-8.748,8.747H176.515c-4.822,0-8.747-3.924-8.747-8.747v-68.425
			c0-4.822,3.923-8.747,8.747-8.747h98.021c4.5,0,8.146-3.647,8.146-8.146s-3.646-8.146-8.146-8.146h-98.021
			c-13.806,0-25.039,11.232-25.039,25.039v68.425c0,13.806,11.232,25.039,25.039,25.039h158.966c13.807,0,25.04-11.233,25.04-25.039
			v-68.426C360.521,128.779,349.288,117.547,335.482,117.547z"/>
	</g>
</g>
<g>
	<g>
		<path d="M419.574,209.663c-0.513-8.071-2.943-15.096-6.9-20.7v-32.288c0-46.855-20.795-90.899-57.052-120.84
			c-3.466-2.864-8.602-2.375-11.469,1.095c-2.865,3.468-2.375,8.603,1.095,11.469c18.098,14.945,31.891,33.811,40.566,54.846
			c-7.544-11.026-20.218-18.28-34.558-18.28h-48.538c-45.203-13.446-70.51-32.649-81.609-42.952
			c-2.256-2.094-5.499-2.738-8.383-1.665c-23.365,8.695-43.929,24.637-58.32,45.096c-11.685,1.781-21.791,8.414-28.204,17.769
			c21.071-50.965,71.31-86.92,129.797-86.92c22.087,0,43.246,5.014,62.891,14.903c4.02,2.023,8.917,0.405,10.938-3.614
			c2.022-4.019,0.405-8.916-3.614-10.938C304.277,5.599,280.653,0,255.999,0C169.608,0,99.324,70.284,99.324,156.675v32.286
			c-3.957,5.604-6.388,12.631-6.9,20.702c-0.622,9.8,1.779,20.264,6.9,29.658v133.999c0,4.499,3.647,8.146,8.146,8.146h107.625
			v1.208c-6.988,1.081-13.845,2.756-20.465,5.001c-0.008,0.002-0.014,0.007-0.022,0.009c-0.01,0.003-0.021,0.005-0.031,0.009
			l-1.112,0.386c-49.088,17.207-82.069,63.732-82.069,115.774c0,4.499,3.647,8.146,8.146,8.146h272.913
			c4.499,0.002,8.145-3.645,8.145-8.144c0-52.042-32.985-98.567-82.079-115.771c-0.002,0-0.003,0-0.005-0.001
			c-6.989-2.45-14.232-4.26-21.614-5.405v-1.209h107.626c4.5,0,8.146-3.647,8.146-8.146V239.32
			C417.794,229.927,420.196,219.463,419.574,209.663z M396.383,156.675v20.051c-0.336-0.117-3.278-0.855-3.278-0.946V126.81
			c0-0.12-0.008-0.237-0.009-0.355C395.259,136.28,396.383,146.402,396.383,156.675z M213.906,57.41
			c8.748,7.505,22.822,17.742,43.286,27.553h-81.65C186.141,73.113,199.316,63.621,213.906,57.41z M135.183,203.517
			c0.001-6.907,0.001-13.812,0.001-20.719V126.81c0-13.65,10.757-24.835,24.239-25.522c0.437-0.022,0.874-0.034,1.316-0.034
			c0,0,140.785,0,140.806,0h49.713c14.092,0,25.555,11.464,25.555,25.556v55.988c0,8.412,0,16.825,0,25.237
			c0,12.326,2.177,26.968-7.346,36.644c-9.622,9.779-24.442,7.661-36.867,7.661c-19.72,0-39.439,0-59.159,0
			c-22.528,0-45.054,0-67.582,0c-14.12,0-28.24,0-42.359,0c-0.921,0-1.842,0-2.762,0c-10.958,0-21.09-7.506-24.377-17.939
			C133.457,225.185,135.183,213.109,135.183,203.517z M115.616,156.675c0-10.372,1.141-20.481,3.286-30.219
			c-0.001,0.118-0.009,0.235-0.009,0.353v48.971c-1.1,0.269-2.205,0.575-3.277,0.945V156.675z M108.682,210.697
			c0.448-7.051,3.59-14.43,10.21-17.711c0,8.529-0.682,17.046-0.618,25.576c0.031,4.237,0.223,8.484,0.809,12.684
			c0.352,2.521,0.756,9.005,2.685,10.753c-3.079-2.789-5.761-6.041-7.858-9.631C110.102,225.853,108.201,218.269,108.682,210.697z
			 M322.53,407.263c34.884,16.104,58.518,50.023,61.467,88.445H128c2.977-38.796,27.038-73,62.457-88.905
			c4.441,21.552,19.867,40.34,40.291,48.627c8.142,3.303,17.007,5.048,25.792,5.048c22.88,0,45.157-12.35,57.292-31.745
			C317.945,422.162,320.907,414.843,322.53,407.263z M307.024,401.525c-1.506,9.027-5.476,17.587-11.39,24.572
			c-9.657,11.404-24.152,18.09-39.091,18.09c-19.072,0-36.946-10.894-45.628-27.868c-0.61-1.194-6.043-14.779-4.9-15.089
			c5.849-1.587,11.875-2.676,17.986-3.25c4.186-0.392,7.386-3.906,7.386-8.11v-25.227c0.014,1.909,21.031,2.396,23.63,2.412
			c0.328,0.002,0.653,0.02,0.981,0.02c8.323,0,16.466-1.017,24.649-2.436c-0.166,2.865-0.037,5.799-0.037,8.682v16.547
			c0,4.203,3.199,7.717,7.385,8.11C294.461,398.585,300.837,399.775,307.024,401.525z M263.613,350.509
			c-2.534,0.18-5.077,0.277-7.617,0.277c-23.829,0-47.163-7.961-65.991-22.565c-3.555-2.758-8.672-2.11-11.429,1.445
			c-2.758,3.555-2.109,8.67,1.446,11.427c10.753,8.339,22.558,14.738,35.073,19.105v4.978h-99.479v-106.93
			c3.958,2.903,8.312,5.265,12.97,7.077c1.723,0.671,3.481,1.271,5.26,1.776c0.15,0.043,0.298,0.09,0.449,0.131
			c3.494,17.583,10.786,34.272,21.428,48.85c2.652,3.634,7.748,4.429,11.382,1.777c3.634-2.652,4.429-7.748,1.777-11.382
			c-8.542-11.703-14.603-24.97-17.868-38.97c0.034,0.146,1.805,0.358,1.98,0.391c2.559,0.472,5.142,0.739,7.745,0.739h190.518
			c3.243,0,6.573-0.379,9.731-1.131c-4.887,21.008-16.018,40.153-32.169,54.962C311.011,338.794,287.707,348.797,263.613,350.509z
			 M396.382,365.176h-99.48v-5.018c15.76-5.498,30.372-14.171,42.927-25.684c19.6-17.972,32.771-41.498,37.872-67.244
			c0.153-0.043,0.302-0.09,0.452-0.133c4.32-1.229,8.516-2.962,12.441-5.145c1.7-0.945,3.35-1.979,4.94-3.099
			c0.112-0.078,0.848-0.495,0.848-0.609V365.176z M395.091,236.773c-1.478,1.881-3.104,3.634-4.862,5.226
			c0.928-2.368,1.646-4.838,2.131-7.392c0.008-0.041,0.014-0.081,0.022-0.122c0.483-2.534,0.722-5.12,0.722-7.701v-33.798
			c6.674,3.306,9.758,10.602,10.209,17.71C403.92,220.232,400.778,229.193,395.091,236.773z"/>
	</g>
</g>
<g>
	<g>
		<path d="M255.999,274.816c-17.257,0-31.297,14.871-31.297,33.15c0,2.198,0.205,4.401,0.61,6.544c0,0.002,0.001,0.004,0.001,0.007
			c2.917,15.413,15.821,26.599,30.684,26.599c14.862,0,27.766-11.185,30.685-26.597c0-0.001,0.001-0.003,0.001-0.005
			c0.405-2.142,0.611-4.345,0.611-6.547C287.295,289.687,273.256,274.816,255.999,274.816z M255.999,324.824
			c-4.373,0-8.41-2.162-11.193-5.653c0.083-0.01,0.163-0.023,0.245-0.033c0.553-0.066,1.113-0.122,1.674-0.177
			c0.327-0.033,0.652-0.07,0.981-0.099c0.719-0.064,1.443-0.115,2.171-0.162c0.174-0.012,0.345-0.027,0.52-0.037
			c3.709-0.218,7.493-0.218,11.202,0c0.176,0.011,0.349,0.026,0.524,0.038c0.726,0.047,1.449,0.098,2.167,0.161
			c0.328,0.029,0.652,0.066,0.978,0.099c0.562,0.055,1.124,0.112,1.679,0.178c0.081,0.01,0.162,0.023,0.243,0.033
			C264.408,322.661,260.371,324.824,255.999,324.824z M269.629,303.061c-0.669-0.085-1.34-0.163-2.015-0.236
			c-0.449-0.048-0.897-0.094-1.348-0.137c-0.694-0.065-1.392-0.121-2.093-0.173c-0.432-0.033-0.865-0.067-1.299-0.093
			c-0.766-0.047-1.537-0.081-2.308-0.113c-0.371-0.015-0.741-0.036-1.114-0.048c-1.146-0.035-2.296-0.055-3.453-0.055
			c-1.158,0-2.308,0.021-3.453,0.055c-0.375,0.012-0.745,0.033-1.119,0.048c-0.769,0.031-1.538,0.066-2.302,0.113
			c-0.438,0.027-0.872,0.062-1.308,0.093c-0.698,0.052-1.395,0.107-2.088,0.173c-0.45,0.042-0.898,0.09-1.346,0.137
			c-0.677,0.072-1.351,0.151-2.022,0.237c-0.248,0.031-0.499,0.053-0.745,0.087c1.849-6.956,7.596-12.041,14.382-12.041
			c6.784,0,12.532,5.085,14.381,12.041C270.131,303.115,269.878,303.092,269.629,303.061z"/>
	</g>
</g>
</svg>